<?xml version="1.0" encoding="utf-8"?>
<!-- Generator: Adobe Illustrator 22.0.1, SVG Export Plug-In . SVG Version: 6.00 Build 0)  -->
<svg version="1.1" id="Capa_1" xmlns="http://www.w3.org/2000/svg" xmlns:xlink="http://www.w3.org/1999/xlink" x="0px" y="0px"
	 viewBox="0 0 183 175" style="enable-background:new 0 0 183 175;" xml:space="preserve">
<style type="text/css">
	.st0{fill:#FFFFFF;}
</style>
<g>
	<path d="M-0.2,163.6c1.3-2.8,3.2-4.8,6.8-4.9c0-1.5,0-2.8,0-4.2c0.1-3.7,2.6-6.3,6.3-6.4c2.5-0.1,5,0,7.7,0c0-1.7,0-3.2,0-4.8
		c0-3.7,1.2-5.3,4.9-6.4c0-1.5,0-3.1,0-4.7c0-2.9,0.8-4.2,2.6-4.3c1.9,0,2.7,1.3,2.7,4.2c0,1.5,0,3.1,0,4.8c2.8,0,5.6,0,8.5,0
		c0-18.1,0-36.2,0-54.4c-2.7,0-5.5,0-8.5,0c0,0.7,0,1.3,0,1.9c0,10.7,0,21.5,0,32.2c0,0.6,0,1.2-0.1,1.8c-0.3,1.4-1.2,2.2-2.6,2.2
		c-1.4,0-2.3-0.9-2.6-2.3c-0.1-0.6-0.1-1.3-0.1-2c0-11.3,0-22.5,0-33.8c-4.2-1.7-4.9-2.7-4.9-7.2c0-1.3,0-2.6,0-4.1
		c-2.3,0-4.5,0-6.6,0c-4,0-5.9-2-5.9-5.9c0-1.5,0-3,0-4.5c-1.6-0.1-3.1-0.1-4.6-0.3c-2-0.3-3.2-1.6-3.4-3.6c-0.1-1.8-0.1-3.7,0-5.5
		c0.1-2,1.5-3,3.1-3.8c10.7-5.6,21.4-11.2,32.1-16.8C53.1,21.5,71,12.2,88.8,2.8c2.8-1.5,5.3-1.5,8,0.1c3.5,2.1,7.1,3.9,10.7,5.8
		c1.8,1,2.3,2.4,1.6,3.8c-0.7,1.5-2.3,1.8-4.2,0.9c-3.6-1.9-7.2-3.8-10.7-5.8c-1.1-0.6-2-0.6-3.1,0c-28,14.7-56,29.4-84,44.1
		c-1.7,0.9-2.1,1.9-1.5,3.7c57.2,0,114.4,0,171.6,0c0.5-1.8,0.1-2.8-1.6-3.7c-19.3-10.3-38.5-20.7-57.7-31.1c-0.6-0.3-1.2-0.6-1.7-1
		c-1.1-0.9-1.4-2.1-0.8-3.3c0.7-1.3,1.9-1.6,3.2-1.2c0.6,0.2,1.1,0.5,1.6,0.8c19.7,10.7,39.4,21.3,59.1,31.9
		c2.4,1.3,3.6,2.9,3.4,5.7c-0.1,0.9,0,1.8,0,2.7c-0.1,3.3-1.6,4.9-5,4.9c-0.9,0-1.9,0-3.1,0c0,1.7,0,3.3,0,4.9c0,3.6-2,5.6-5.7,5.7
		c-2.1,0-4.2,0-6.3,0c-0.1,0-0.2,0.1-0.6,0.2c0,1.4,0,2.8,0,4.3c0,4-1,5.4-4.9,6.7c0,18.1,0,36.2,0,54.5c6.4,1.4,4.6,6.6,5,11.2
		c2.6,0,5.2-0.1,7.8,0c3.5,0.1,6,2.7,6.1,6.2c0.1,1.4,0,2.7,0,4.2c0.5,0.1,0.9,0.3,1.3,0.3c3.3,0.6,5.4,2.9,5.5,6.3
		c0.1,1.4,0,2.9,0,4.3c0,4-1.3,5.3-5.2,5.3c-15.3,0-30.6,0-46,0c-42.2,0-84.4,0-126.7,0c-2.5,0-4.3-0.7-5.3-3
		C-0.2,169.1-0.2,166.4-0.2,163.6z M44.9,137c3.8,1.2,4.9,2.6,4.9,6.5c0,1.5,0,3,0,4.5c2.8,0,5.5,0,8.3,0c0-1.9,0-3.8,0-5.6
		c0-1.9,0.8-3.4,2.3-4.4c0.8-0.5,1.7-0.8,2.5-1.1c0-18.2,0-36.3,0-54.3c-3.8-1.3-4.8-2.6-4.8-6.6c0-1.5,0-2.9,0-4.5
		c-2.8,0-5.5,0-8.3,0c0,1.5,0,3,0,4.4c0,4-1,5.4-4.9,6.7C44.9,100.6,44.9,118.8,44.9,137z M137.8,136.9c0-18.1,0-36.3,0-54.4
		c-3.7-1.1-4.9-2.6-4.9-6.3c0-1.5,0-3.1,0-4.6c-2.9,0-5.5,0-8.3,0c0,1.5,0,2.9,0,4.2c0,4.2-0.8,5.4-4.8,6.8c0,18.1,0,36.3,0,54.4
		c3.8,1.2,4.8,2.6,4.8,6.4c0,1.5,0,3.1,0,4.7c1.5,0,2.8,0,4.1,0c1.3,0,2.7,0,4.1,0c0-1.6,0-2.9,0-4.2
		C132.9,139.6,133.8,138.4,137.8,136.9z M100.3,137c0-18.2,0-36.3,0-54.4c-4-1.5-4.8-2.7-4.8-6.9c0-1.4,0-2.8,0-4.3
		c-1.6,0-3,0-4.3,0c-1.3,0-2.6,0-4.1,0c0,1.6,0,3,0,4.3c0,4.3-0.8,5.4-4.7,6.9c0,18.2,0,36.3,0,54.4c3.7,1.2,4.7,2.6,4.7,6.3
		c0,1.6,0,3.2,0,4.7c2.9,0,5.5,0,8.3,0c0-1.7,0-3.2,0-4.7C95.6,139.6,96.6,138.2,100.3,137z M177.6,169.4c0-0.6,0-1,0-1.4
		c0-4,0.3-3.8-3.8-3.8c-51.4,0-102.8,0-154.2,0c-4.2,0-8.3,0-12.5,0c-0.9,0-1.9,0.1-1.9,1.3c-0.1,1.3,0,2.6,0,3.9
		C62.7,169.4,120,169.4,177.6,169.4z M170.8,158.7c0-0.7,0-1.1,0-1.6c0-3.6,0-3.6-3.4-3.6c-50.3,0-100.6,0-151,0
		c-4.8,0-4.6-1-4.5,4.8c0,0.1,0.1,0.2,0.2,0.4C65,158.7,117.8,158.7,170.8,158.7z M169.3,60.9c-52,0-103.8,0-155.7,0
		c0,1.7,0,3.3,0,4.9c52,0,103.8,0,155.7,0C169.3,64.2,169.3,62.7,169.3,60.9z M76.9,137c0-18.2,0-36.3,0-54.5c-2.9,0-5.6,0-8.4,0
		c0,18.2,0,36.3,0,54.5C71.4,137,74.1,137,76.9,137z M105.9,137c2.9,0,5.6,0,8.3,0c0-18.2,0-36.3,0-54.5c-2.8,0-5.6,0-8.3,0
		C105.9,100.7,105.9,118.8,105.9,137z M151.7,137.1c0-18.2,0-36.4,0-54.6c-2.8,0-5.5,0-8.3,0c0,18.2,0,36.4,0,54.6
		C146.2,137.1,148.9,137.1,151.7,137.1z M44.3,71.5c-6.2,0-12.2,0-18.2,0c0,1.9,0,3.6,0,5.4c6.1,0,12.2,0,18.2,0
		C44.3,75.1,44.3,73.4,44.3,71.5z M138.4,71.5c0,1.9,0,3.6,0,5.4c6.1,0,12.1,0,18.2,0c0-1.9,0-3.6,0-5.4
		C150.5,71.5,144.6,71.5,138.4,71.5z M44.4,142.6c-6.1,0-12.2,0-18.2,0c0,1.9,0,3.6,0,5.4c6.2,0,12.2,0,18.2,0
		C44.4,146.1,44.4,144.4,44.4,142.6z M156.7,142.6c-6.2,0-12.2,0-18.3,0c0,1.9,0,3.6,0,5.4c6.1,0,12.2,0,18.3,0
		C156.7,146.1,156.7,144.4,156.7,142.6z M63.6,71.5c0,1.9,0,3.7,0,5.4c6.1,0,12.1,0,18.1,0c0-1.8,0-3.6,0-5.4
		C75.7,71.5,69.7,71.5,63.6,71.5z M119.2,71.5c-6.2,0-12.1,0-18.2,0c0,1.9,0,3.6,0,5.4c6.1,0,12.1,0,18.2,0
		C119.2,75.1,119.2,73.4,119.2,71.5z M63.5,148.1c6.1,0,12.1,0,18.2,0c0-1.9,0-3.6,0-5.4c-6.1,0-12.1,0-18.2,0
		C63.5,144.4,63.5,146.1,63.5,148.1z M119.2,148.1c0-1.9,0-3.6,0-5.5c-6.1,0-12.1,0-18.2,0c0,1.9,0,3.6,0,5.5
		C107.1,148.1,113.1,148.1,119.2,148.1z"/>
	<path class="st0" d="M44.9,137c0-18.2,0-36.3,0-54.4c3.8-1.2,4.9-2.6,4.9-6.7c0-1.4,0-2.8,0-4.4c2.8,0,5.4,0,8.3,0c0,1.6,0,3,0,4.5
		c0,3.9,1,5.3,4.8,6.6c0,18.1,0,36.2,0,54.3c-0.8,0.4-1.7,0.6-2.5,1.1c-1.6,1-2.3,2.5-2.3,4.4c0,1.8,0,3.7,0,5.6c-2.8,0-5.4,0-8.3,0
		c0-1.6,0-3,0-4.5C49.8,139.6,48.7,138.2,44.9,137z"/>
	<path class="st0" d="M137.8,136.9c-4,1.4-4.9,2.7-4.9,7c0,1.3,0,2.6,0,4.2c-1.4,0-2.8,0-4.1,0c-1.3,0-2.6,0-4.1,0
		c0-1.7,0-3.2,0-4.7c0-3.8-1-5.2-4.8-6.4c0-18.1,0-36.3,0-54.4c4-1.4,4.8-2.6,4.8-6.8c0-1.4,0-2.7,0-4.2c2.8,0,5.4,0,8.3,0
		c0,1.6,0,3.1,0,4.6c0,3.7,1.2,5.3,4.9,6.3C137.8,100.6,137.8,118.8,137.8,136.9z"/>
	<path class="st0" d="M100.3,137c-3.7,1.2-4.8,2.6-4.8,6.3c0,1.5,0,3.1,0,4.7c-2.8,0-5.4,0-8.3,0c0-1.6,0-3.1,0-4.7
		c0-3.7-1.1-5.1-4.7-6.3c0-18.1,0-36.3,0-54.4c3.9-1.5,4.7-2.6,4.7-6.9c0-1.4,0-2.7,0-4.3c1.5,0,2.8,0,4.1,0c1.3,0,2.6,0,4.3,0
		c0,1.5,0,2.9,0,4.3c0,4.3,0.8,5.5,4.8,6.9C100.3,100.7,100.3,118.8,100.3,137z"/>
	<path class="st0" d="M177.6,169.4c-57.6,0-114.9,0-172.4,0c0-1.3,0-2.6,0-3.9c0.1-1.3,1-1.3,1.9-1.3c4.2,0,8.3,0,12.5,0
		c51.4,0,102.8,0,154.2,0c4.1,0,3.7-0.2,3.8,3.8C177.6,168.4,177.6,168.8,177.6,169.4z"/>
	<path class="st0" d="M170.8,158.7c-53,0-105.9,0-158.6,0c-0.1-0.2-0.2-0.3-0.2-0.4c-0.2-5.8-0.4-4.8,4.5-4.8c50.3,0,100.6,0,151,0
		c3.5,0,3.5,0,3.4,3.6C170.8,157.6,170.8,158,170.8,158.7z"/>
	<path class="st0" d="M169.3,60.9c0,1.7,0,3.3,0,4.9c-51.9,0-103.8,0-155.7,0c0-1.6,0-3.2,0-4.9C65.5,60.9,117.3,60.9,169.3,60.9z"
		/>
	<path class="st0" d="M76.9,137c-2.8,0-5.5,0-8.4,0c0-18.1,0-36.2,0-54.5c2.8,0,5.5,0,8.4,0C76.9,100.7,76.9,118.8,76.9,137z"/>
	<path class="st0" d="M105.9,137c0-18.2,0-36.2,0-54.5c2.8,0,5.5,0,8.3,0c0,18.1,0,36.2,0,54.5C111.5,137,108.8,137,105.9,137z"/>
	<path class="st0" d="M151.7,137.1c-2.8,0-5.5,0-8.3,0c0-18.2,0-36.3,0-54.6c2.8,0,5.5,0,8.3,0C151.7,100.7,151.7,118.9,151.7,137.1
		z"/>
	<path class="st0" d="M44.3,71.5c0,1.8,0,3.5,0,5.4c-6.1,0-12.1,0-18.2,0c0-1.8,0-3.5,0-5.4C32.2,71.5,38.1,71.5,44.3,71.5z"/>
	<path class="st0" d="M138.4,71.5c6.1,0,12.1,0,18.2,0c0,1.8,0,3.6,0,5.4c-6.1,0-12.1,0-18.2,0C138.4,75.1,138.4,73.4,138.4,71.5z"
		/>
	<path class="st0" d="M44.4,142.6c0,1.8,0,3.5,0,5.4c-6,0-12.1,0-18.2,0c0-1.8,0-3.5,0-5.4C32.2,142.6,38.2,142.6,44.4,142.6z"/>
	<path class="st0" d="M156.7,142.6c0,1.8,0,3.5,0,5.4c-6.1,0-12.1,0-18.3,0c0-1.8,0-3.5,0-5.4C144.5,142.6,150.5,142.6,156.7,142.6z
		"/>
	<path class="st0" d="M63.6,71.5c6.1,0,12.1,0,18.1,0c0,1.9,0,3.6,0,5.4c-6.1,0-12,0-18.1,0C63.6,75.2,63.6,73.4,63.6,71.5z"/>
	<path class="st0" d="M119.2,71.5c0,1.9,0,3.6,0,5.4c-6.1,0-12,0-18.2,0c0-1.8,0-3.5,0-5.4C107.1,71.5,113.1,71.5,119.2,71.5z"/>
	<path class="st0" d="M63.5,148.1c0-1.9,0-3.6,0-5.4c6.1,0,12.1,0,18.2,0c0,1.8,0,3.6,0,5.4C75.6,148.1,69.7,148.1,63.5,148.1z"/>
	<path class="st0" d="M119.2,148.1c-6.2,0-12.1,0-18.2,0c0-1.9,0-3.6,0-5.5c6.1,0,12.1,0,18.2,0
		C119.2,144.4,119.2,146.2,119.2,148.1z"/>
</g>
</svg>
